# xmcd
#
# Track frame offsets:
#   150
#   13260
#   28410
#   48682
#   66872
#   83582
#   101400
#   116875
#   133640
#   147250
#   160465
#   173047
#   187885
#   199322
#
# Disc length: 2831 seconds
#
# Revision: 0
# Processed by: cddbd v1.5.1PL0 Copyright (c) Steve Scherf et al.
# Submitted via: uFREEDB ActiveX Control 1.5
#
DISCID=cb0b0d0e
DTITLE=Santo Chão - De Pai para Filho
DYEAR=1900
DGENRE=Country
TTITLE0=Mano véio
TTITLE1=Taura e dançador
TTITLE2=De pai pra filho
TTITLE3=Fazendo amor no mato
TTITLE4=Fandango na fronteira
TTITLE5=Prenda
TTITLE6=Tropeadas
TTITLE7=Luz da manhã
TTITLE8=Bugio das prendas
TTITLE9=Peão campeiro
TTITLE10=Fandango nos Rodrigues
TTITLE11=Gigante do sul
TTITLE12=Dançando vanera
TTITLE13=Retoço
EXTD=
EXTT0=
EXTT1=
EXTT2=
EXTT3=
EXTT4=
EXTT5=
EXTT6=
EXTT7=
EXTT8=
EXTT9=
EXTT10=
EXTT11=
EXTT12=
EXTT13=
PLAYORDER=
